<svg id="Layer_1" data-name="Layer 1" xmlns="http://www.w3.org/2000/svg" viewBox="0 0 400 140"><defs><style>.cls-1,.cls-2,.cls-23,.cls-3{fill:none;stroke-miterlimit:10;}.cls-1,.cls-2,.cls-3{stroke:#b3b3b3;stroke-width:2px;}.cls-1{stroke-dasharray:2 3;}.cls-3{stroke-dasharray:1.99 2.98;}.cls-4{fill:#b3b3b3;}.cls-5{fill:#aad2f2;}.cls-6{fill:#316389;}.cls-7{fill:#2e2e2e;}.cls-8{fill:#c9b9da;}.cls-9{fill:#5d5f5e;}.cls-10,.cls-12,.cls-16,.cls-18,.cls-20{fill:#fff;}.cls-10{opacity:0.25;}.cls-11{fill:#925592;}.cls-13{fill:#88be88;}.cls-14{fill:#333;}.cls-15{fill:#757575;}.cls-16{opacity:0.15;}.cls-17{fill:#59b4d9;}.cls-18{opacity:0.5;}.cls-18,.cls-20{isolation:isolate;}.cls-19{fill:#b8d432;}.cls-20{opacity:0.1;}.cls-21{fill:#60a860;}.cls-22{fill:#ec3948;}.cls-23{stroke:#fff;stroke-linecap:square;}.cls-24{fill:#999;}.cls-25{fill:#231f20;}</style></defs><title>ems_solutions-5</title><polyline class="cls-1" points="125 52.57 195 91.57 179 40.57"/><polyline class="cls-1" points="235 40.57 223 86.57 290 58.57"/><line class="cls-2" x1="30.01" y1="53.61" x2="31.01" y2="53.61"/><path class="cls-3" d="M34,53.61H72.19a12,12,0,0,1,0,24H41a12,12,0,1,0,0,24l271.51-.11"/><line class="cls-2" x1="314" y1="101.5" x2="315" y2="101.5"/><polygon class="cls-4" points="36.64 61.79 38.01 60.33 30.78 53.62 38.01 46.9 36.64 45.44 27.84 53.62 36.64 61.79"/><path class="cls-5" d="M167.24,91.73a7.88,7.88,0,0,1,3.92,1,12.4,12.4,0,0,1,20.26-8.11,18.21,18.21,0,0,1,36.11,2.23,10,10,0,0,1,6.16.29,10.73,10.73,0,0,1,7.06,9.65,10.56,10.56,0,0,1-10.55,10.82H167.38a7.92,7.92,0,0,1-.14-15.83Z"/><rect class="cls-6" x="189" y="121.57" width="24" height="6"/><polygon class="cls-6" points="204 105.85 204 84.57 198 84.57 198 105.85 189 96.9 189 105.53 201 117.36 213 105.53 213 96.9 204 105.85"/><path class="cls-7" d="M356,112.57V83.77a1.2,1.2,0,0,0-1.2-1.2H311.2a1.2,1.2,0,0,0-1.2,1.2v28.8Z"/><rect class="cls-8" x="312" y="84.57" width="42" height="26"/><path class="cls-7" d="M358.65,114.57h-52c-1.73-.23-2-2.62-2-2h56C360.66,111.95,360,114.33,358.65,114.57Z"/><rect class="cls-9" x="333" y="83.57" width="1" height="1"/><polygon class="cls-10" points="354 84.57 335.29 84.57 354 102.07 354 84.57"/><rect class="cls-11" x="320" y="89.57" width="18" height="2"/><rect class="cls-11" x="320" y="92.57" width="18" height="2"/><rect class="cls-11" x="320" y="95.57" width="18" height="2"/><rect class="cls-11" x="320" y="98.57" width="18" height="2"/><rect class="cls-11" x="320" y="101.57" width="18" height="2"/><rect class="cls-11" x="320" y="104.57" width="18" height="2"/><rect class="cls-12" x="324" y="89.57" width="18" height="2"/><rect class="cls-11" x="323" y="92.57" width="18" height="2"/><rect class="cls-12" x="332" y="95.57" width="12" height="2"/><rect class="cls-12" x="324" y="98.57" width="18" height="2"/><rect class="cls-12" x="326" y="101.57" width="18" height="2"/><rect class="cls-12" x="323" y="104.57" width="18" height="2"/><circle class="cls-13" cx="117" cy="39" r="18"/><path class="cls-12" d="M126.6,31.23l-3.17,3.16-2-.68-.68-2,3.17-2.93a4.2,4.2,0,0,0-4.75.9,4.61,4.61,0,0,0-.9,4.74L108.06,44.54a1.51,1.51,0,0,0,0,2.26l.23.23a1.77,1.77,0,0,0,2.49,0l9.95-10.15a4.2,4.2,0,0,0,4.75-.9,4.7,4.7,0,0,0,1.13-4.74M108.73,46.35a.85.85,0,0,1,0-1.35c.45-.45,1.13-.45,1.36,0a.85.85,0,0,1,0,1.35c-.23.45-.9.45-1.36,0"/><path class="cls-14" d="M126.07,47.72l.94-.94a1.57,1.57,0,0,0,0-2.36l-7.08-6.83a1.25,1.25,0,0,0-1.89-.24l-4.49-4.48L113.09,31l-3.78-2.12-.94.94,2.12,3.77,1.89.47,4.49,4.48a1.76,1.76,0,0,0,0,2.12l7.08,7.07a1.77,1.77,0,0,0,2.13,0"/><path class="cls-7" d="M362.26,128.06a33.2,33.2,0,0,1-7,.53,38.28,38.28,0,0,1-7.5-.54c-1-.27-1.75-.89-1.75-1.88V94.91c0-1,.67-1.61,1.79-1.78a59.73,59.73,0,0,1,7.4-.46,43.62,43.62,0,0,1,7,.46c1.21.19,1.79.82,1.79,1.82v31.23C364,127.17,363.48,127.79,362.26,128.06Z"/><rect class="cls-8" x="347" y="96.57" width="16" height="28"/><circle class="cls-15" cx="355.33" cy="94.39" r="0.35"/><circle class="cls-15" cx="349.75" cy="94.67" r="0.28"/><polygon class="cls-16" points="363 110.49 363 96.57 347.79 96.57 363 110.49"/><rect class="cls-11" x="348" y="100.57" width="11" height="2"/><rect class="cls-11" x="348" y="103.57" width="11" height="2"/><rect class="cls-11" x="348" y="106.57" width="11" height="2"/><rect class="cls-11" x="348" y="109.57" width="11" height="2"/><rect class="cls-11" x="348" y="112.57" width="11" height="2"/><rect class="cls-11" x="348" y="115.57" width="11" height="2"/><rect class="cls-12" x="351" y="100.57" width="10" height="2"/><rect class="cls-11" x="350" y="103.57" width="10" height="2"/><rect class="cls-12" x="355" y="106.57" width="7" height="2"/><rect class="cls-12" x="351" y="109.57" width="10" height="2"/><rect class="cls-12" x="352" y="112.57" width="10" height="2"/><rect class="cls-12" x="350" y="115.57" width="10" height="2"/><path class="cls-17" d="M240.12,49.12a3.29,3.29,0,0,1-2.35-1L223.09,33.46a3.32,3.32,0,0,1,0-4.7l14.68-14.68a3.32,3.32,0,0,1,4.7,0l14.68,14.68a3.32,3.32,0,0,1,0,4.7L242.47,48.14a3.3,3.3,0,0,1-2.35,1"/><path class="cls-12" d="M247.72,30.15a2.87,2.87,0,0,0,.31,2.53l-5.65,5.65a3.32,3.32,0,0,0-.48-.27V23.64a2.85,2.85,0,0,0,1.28-3.39,2.76,2.76,0,0,0-1.76-1.77,2.85,2.85,0,0,0-2.36,5.16V38.07l-.5.21-5.62-5.62a2.85,2.85,0,1,0-5.17-.87,3,3,0,0,0,3.71,2l5.94,5.94a3.39,3.39,0,0,0-.07,2.46,3.17,3.17,0,0,0,1.92,1.95,3.33,3.33,0,0,0,4.27-4.38l6-6A2.59,2.59,0,0,0,252,33.4a2.82,2.82,0,0,0-2.61-5A2.74,2.74,0,0,0,247.72,30.15Z"/><rect class="cls-18" x="244.44" y="19.04" width="1.82" height="14.89" transform="translate(53.16 181.27) rotate(-45.01)"/><rect class="cls-18" x="227.45" y="25.59" width="14.89" height="1.82" transform="translate(50.07 173.86) rotate(-45)"/><path class="cls-19" d="M242,40.92a2,2,0,1,1-2-2,2,2,0,0,1,2,2"/><path class="cls-19" d="M241.68,21.32a1.57,1.57,0,1,1-1.57-1.57,1.56,1.56,0,0,1,1.57,1.57"/><path class="cls-19" d="M231.88,31.12a1.57,1.57,0,1,1-1.57-1.57,1.57,1.57,0,0,1,1.57,1.57"/><path class="cls-19" d="M251.48,31.12a1.57,1.57,0,1,1-1.57-1.57,1.57,1.57,0,0,1,1.57,1.57"/><path class="cls-20" d="M242.47,14.09a3.32,3.32,0,0,0-4.7,0L223.09,28.77a3.32,3.32,0,0,0,0,4.7l8.31,8.31L247,18.66Z"/><circle class="cls-21" cx="45.4" cy="65.59" r="7"/><polygon class="cls-12" points="44.51 69.87 43.15 69.84 40.75 66.24 42.13 65.32 43.87 67.93 48.71 61.32 50.05 62.3 44.51 69.87"/><circle class="cls-21" cx="69.4" cy="65.59" r="7"/><polygon class="cls-12" points="68.51 69.87 67.15 69.84 64.75 66.24 66.13 65.32 67.87 67.93 72.71 61.32 74.05 62.3 68.51 69.87"/><circle class="cls-21" cx="68.4" cy="90.59" r="7"/><polygon class="cls-12" points="67.51 94.87 66.15 94.84 63.75 91.24 65.13 90.32 66.87 92.93 71.71 86.32 73.05 87.3 67.51 94.87"/><circle class="cls-22" cx="45.4" cy="90.59" r="7"/><line class="cls-23" x1="49.35" y1="86.84" x2="41.65" y2="94.54"/><line class="cls-23" x1="49.35" y1="94.54" x2="41.65" y2="86.84"/><circle class="cls-13" cx="301" cy="48.57" r="18"/><path id="outline" class="cls-12" d="M312.61,46.15a3.43,3.43,0,0,0,.94-2.35,3.52,3.52,0,0,0-7,0,3.44,3.44,0,0,0,.93,2.34,4.48,4.48,0,0,0-1.91,1.72,5.22,5.22,0,0,0-8.56-.05,4.44,4.44,0,0,0-1.86-1.66,3.44,3.44,0,0,0,.94-2.35,3.52,3.52,0,0,0-7,0,3.44,3.44,0,0,0,.93,2.34,4.84,4.84,0,0,0-2.68,4.68H289a3.49,3.49,0,0,1,7-.16l0,.19a5.2,5.2,0,0,0,2.18,4.22,6.21,6.21,0,0,0-3.93,6.24H296a5.25,5.25,0,1,1,10.5,0h1.75a6.21,6.21,0,0,0-3.93-6.24,5.22,5.22,0,0,0,2.18-4.23v0h0a3.5,3.5,0,0,1,7,0h1.75A4.84,4.84,0,0,0,312.61,46.15Zm-20.05-4a1.73,1.73,0,1,1-1.76,1.73A1.75,1.75,0,0,1,292.55,42.16Zm12.08,9.45a3.49,3.49,0,0,1-6.9-.76v0h0l0-.18a3.49,3.49,0,1,1,6.88,1ZM310,42.16a1.73,1.73,0,1,1-1.76,1.73A1.75,1.75,0,0,1,310,42.16Z"/><circle class="cls-24" cx="177" cy="27" r="18"/><path class="cls-25" d="M184,19.57c0-4-1.58-7-7-7s-7,3-7,7v3h-3v16h20v-16h-3Zm1,5v12H169v-12Zm-13-2v-3c0-3.59,1.75-5,5-5,3.75,0,5,1.41,5,5v3Zm6,6v5h-2v-5Z"/></svg>