<svg id="Layer_1" data-name="Layer 1" xmlns="http://www.w3.org/2000/svg" viewBox="0 0 400 140"><defs><style>.cls-1,.cls-10,.cls-2,.cls-9{fill:none;}.cls-1,.cls-2{stroke:#b3b3b3;stroke-width:2px;}.cls-1,.cls-2,.cls-9{stroke-miterlimit:10;}.cls-2{stroke-dasharray:1.99 2.99;}.cls-3{fill:#b3b3b3;}.cls-4{fill:#2b456d;}.cls-5{fill:#ccc;}.cls-6{fill:#60a860;}.cls-12,.cls-7{fill:#fff;}.cls-8{fill:#ec3948;}.cls-10,.cls-9{stroke:#fff;stroke-linecap:square;}.cls-10{stroke-linejoin:round;}.cls-11{fill:#d4dae2;}.cls-12{opacity:0.3;}.cls-13{fill:#5e5e5e;}.cls-14{fill:#2e2e2e;}.cls-15{fill:#556a8a;}</style></defs><title>ems_info-protection-security-2</title><line class="cls-1" x1="38.83" y1="21.9" x2="39.83" y2="21.9"/><path class="cls-2" d="M42.82,21.9H219.3a19.71,19.71,0,0,1,0,39.42H77.86a19.71,19.71,0,0,0,0,39.42H242.38"/><line class="cls-1" x1="243.87" y1="100.73" x2="244.87" y2="100.73"/><polygon class="cls-3" points="238.25 108.91 236.88 107.44 244.1 100.73 236.88 94.02 238.25 92.55 247.04 100.73 238.25 108.91"/><circle class="cls-4" cx="40.38" cy="21.8" r="9.59"/><rect class="cls-5" x="76.13" y="69.62" width="31.92" height="23.63"/><rect class="cls-6" x="76.13" y="69.62" width="31.92" height="6"/><circle class="cls-6" cx="83.4" cy="82.59" r="5"/><polygon class="cls-7" points="82.77 85.65 81.79 85.63 80.08 83.05 81.07 82.39 82.31 84.26 85.77 79.54 86.72 80.24 82.77 85.65"/><rect class="cls-5" x="113.44" y="69.62" width="31.92" height="23.63"/><rect class="cls-6" x="113.44" y="69.62" width="31.92" height="6"/><circle class="cls-6" cx="120.71" cy="82.59" r="5"/><polygon class="cls-7" points="120.08 85.65 119.1 85.63 117.39 83.05 118.38 82.39 119.62 84.26 123.08 79.54 124.03 80.24 120.08 85.65"/><rect class="cls-5" x="150.75" y="69.62" width="31.92" height="23.63"/><rect class="cls-8" x="150.75" y="69.62" width="31.92" height="6"/><circle class="cls-8" cx="158.02" cy="82.59" r="5"/><rect class="cls-5" x="188.06" y="69.62" width="31.92" height="23.63"/><rect class="cls-6" x="188.06" y="69.62" width="31.92" height="6"/><circle class="cls-6" cx="195.33" cy="82.59" r="5"/><polygon class="cls-7" points="194.7 85.65 193.73 85.63 192.01 83.05 193 82.39 194.24 84.26 197.7 79.54 198.66 80.24 194.7 85.65"/><line class="cls-9" x1="160.84" y1="79.91" x2="155.34" y2="85.41"/><line class="cls-9" x1="160.84" y1="85.41" x2="155.34" y2="79.91"/><rect class="cls-5" x="76.13" y="30.78" width="31.92" height="23.63"/><rect class="cls-6" x="76.13" y="30.78" width="31.92" height="6"/><circle class="cls-6" cx="83.4" cy="43.75" r="5"/><polygon class="cls-7" points="82.77 46.81 81.79 46.79 80.08 44.22 81.07 43.56 82.31 45.42 85.77 40.7 86.72 41.4 82.77 46.81"/><rect class="cls-5" x="113.44" y="30.78" width="31.92" height="23.63"/><rect class="cls-8" x="113.44" y="30.78" width="31.92" height="6"/><circle class="cls-8" cx="120.71" cy="43.75" r="5"/><rect class="cls-5" x="150.75" y="30.78" width="31.92" height="23.63"/><rect class="cls-6" x="150.75" y="30.78" width="31.92" height="6"/><circle class="cls-6" cx="158.02" cy="43.75" r="5"/><polygon class="cls-7" points="157.39 46.81 156.41 46.79 154.7 44.22 155.69 43.56 156.93 45.42 160.39 40.7 161.35 41.4 157.39 46.81"/><rect class="cls-5" x="188.06" y="30.78" width="31.92" height="23.63"/><rect class="cls-6" x="188.06" y="30.78" width="31.92" height="6"/><circle class="cls-6" cx="195.33" cy="43.75" r="5"/><polygon class="cls-7" points="194.7 46.81 193.73 46.79 192.01 44.22 193 43.56 194.24 45.42 197.7 40.7 198.66 41.4 194.7 46.81"/><line class="cls-10" x1="123.53" y1="41.07" x2="118.03" y2="46.57"/><line class="cls-10" x1="123.53" y1="46.57" x2="118.03" y2="41.07"/><rect class="cls-11" x="263.81" y="57.8" width="103.95" height="55.19"/><polygon class="cls-12" points="367.76 91.59 367.76 57.8 330.5 57.8 367.76 91.59"/><polygon class="cls-13" points="337.66 125.49 293.73 125.49 296.3 122.57 335.09 122.57 337.66 125.49"/><path class="cls-14" d="M335.93,127.12H295.54a1.73,1.73,0,0,1-1.9-1.64h44S337.89,127.12,335.93,127.12Z"/><polygon class="cls-14" points="325.22 123.6 306.17 123.6 307.71 114.84 323.68 114.84 325.22 123.6"/><path class="cls-14" d="M366.83,56.15H264.22a2.37,2.37,0,0,0-2.37,2.37v54.81a2.37,2.37,0,0,0,2.37,2.37H366.83a2.37,2.37,0,0,0,2.37-2.37V58.52A2.37,2.37,0,0,0,366.83,56.15Zm-1.22,55.41H265.35V59.24H365.61Z"/><rect class="cls-6" x="275" y="64" width="5" height="41"/><rect class="cls-6" x="285" y="82" width="5" height="23"/><rect class="cls-15" x="295" y="79" width="5" height="26"/><rect class="cls-6" x="304" y="67" width="5" height="38"/><rect class="cls-8" x="314" y="92" width="5" height="13"/><rect class="cls-15" x="324" y="77" width="5" height="28"/><rect class="cls-6" x="333" y="64" width="5" height="41"/><rect class="cls-8" x="343" y="66" width="5" height="39"/><rect class="cls-15" x="353" y="91" width="5" height="14"/></svg>