<svg id="Layer_1" data-name="Layer 1" xmlns="http://www.w3.org/2000/svg" xmlns:xlink="http://www.w3.org/1999/xlink" viewBox="0 0 400 140"><defs><style>.cls-1,.cls-17,.cls-3,.cls-6{fill:none;}.cls-2{fill:#c7c7c7;}.cls-3{stroke:#fff;stroke-dasharray:1.01 2.02;}.cls-3,.cls-6{stroke-linecap:round;stroke-linejoin:round;stroke-width:1.01px;}.cls-4{fill:#60a860;}.cls-5{fill:#316389;}.cls-6{stroke:#166d94;}.cls-7{fill:#638aa5;}.cls-8{fill:#b2d7f0;}.cls-9{clip-path:url(#clip-path);}.cls-10{fill:#2e2e2e;}.cls-11{fill:#565656;}.cls-12,.cls-15{fill:#fff;}.cls-13{fill:#e3e3e3;}.cls-14{fill:#5d5f5e;}.cls-15{opacity:0.75;}.cls-16{fill:#925592;}.cls-16,.cls-17{stroke:#231f20;stroke-miterlimit:10;stroke-width:0.25px;}.cls-18{fill:#999;}.cls-19{fill:#231f20;}.cls-20{fill:gray;}</style><clipPath id="clip-path"><circle class="cls-1" cx="190.34" cy="35.29" r="9.78"/></clipPath></defs><title>ems_solutions-3</title><path class="cls-2" d="M356.48,109.43,345.73,98.67v5.93h-145a34.24,34.24,0,0,1-32-22.17H292.55a28.16,28.16,0,0,0,0-56.32H200.68a44.36,44.36,0,0,0-44.31,44.31c0,.64,0,1.27,0,1.9h-58V82.43H158a44.39,44.39,0,0,0,42.65,32.29h145v5.46Zm-190-39a34.22,34.22,0,0,1,34.19-34.19h91.87a18,18,0,0,1,0,36.08h-126C166.52,71.68,166.5,71.05,166.5,70.42Z"/><line class="cls-3" x1="295.09" y1="109.85" x2="255.62" y2="109.85"/><circle class="cls-4" cx="310.92" cy="111.68" r="18"/><line class="cls-3" x1="232.84" y1="76.79" x2="193.37" y2="76.79"/><line class="cls-3" x1="232.17" y1="31.08" x2="192.7" y2="31.08"/><path class="cls-5" d="M190.82,20.14l-5.93-5.9a.62.62,0,0,0-.44-.18H169.62a.62.62,0,0,0-.62.62V43.43a.62.62,0,0,0,.62.62h20.76a.62.62,0,0,0,.62-.62V20.58A.62.62,0,0,0,190.82,20.14Z"/><polyline class="cls-6" points="194.16 23.74 187.33 23.74 187.33 17.53"/><path class="cls-7" d="M194.82,23.14l-5.93-5.9a.62.62,0,0,0-.44-.18H173.62a.62.62,0,0,0-.62.62V46.43a.62.62,0,0,0,.62.62h20.76a.62.62,0,0,0,.62-.62V23.58A.62.62,0,0,0,194.82,23.14Z"/><path class="cls-8" d="M188.24,16.91v5.74a.74.74,0,0,0,.74.74h5.87Z"/><g class="cls-9"><rect class="cls-8" x="177" y="25.06" width="14" height="2"/><rect class="cls-8" x="177" y="29.06" width="14" height="2"/><rect class="cls-8" x="177" y="33.06" width="14" height="2"/><rect class="cls-8" x="177" y="37.06" width="14" height="2"/></g><path class="cls-10" d="M209.79,54.07l-.8.8a1.35,1.35,0,0,1-1.91,0l-9.57-9.56a1.35,1.35,0,0,1,0-1.91l.8-.8a1.35,1.35,0,0,1,1.91,0l9.57,9.56A1.35,1.35,0,0,1,209.79,54.07Z"/><path class="cls-11" d="M197.4,43.54a1.35,1.35,0,0,0,.11,1.78l9.57,9.56a1.35,1.35,0,0,0,1.78.11"/><polygon class="cls-12" points="203.25 45.64 200.22 42.61 200.21 42.6 197.51 45.31 197.52 45.31 200.55 48.34 203.25 45.64"/><polygon class="cls-12" points="200.21 42.6 198.22 44.6 201.25 47.64 203.25 45.64 200.22 42.61 200.21 42.6"/><path class="cls-10" d="M190.48,25a10.57,10.57,0,1,0,10.58,10.57A10.59,10.59,0,0,0,190.48,25Zm0,19.86a9.28,9.28,0,1,1,9.27-9.28A9.29,9.29,0,0,1,190.48,44.82Z"/><path class="cls-3" d="M292.39,30.91A23.61,23.61,0,0,1,316,54.52"/><path class="cls-10" d="M130,107.06V49.41a2.36,2.36,0,0,0-2.36-2.36H44.36A2.36,2.36,0,0,0,42,49.41v57.64Z"/><rect class="cls-13" x="45" y="51.06" width="82" height="51"/><path class="cls-10" d="M137.22,109.06H35.35c-3.4,0-4-5-4-5H141.17S139.85,109.06,137.22,109.06Z"/><rect class="cls-14" x="86" y="49.06" width="1" height="1"/><polygon class="cls-15" points="127 51.06 90.33 51.06 127 85.37 127 51.06"/><rect class="cls-16" x="89.05" y="88.07" width="6.09" height="6.09"/><rect class="cls-2" x="97" y="88.06" width="20" height="2"/><rect class="cls-2" x="97" y="92.06" width="27" height="2"/><rect class="cls-17" x="48.76" y="88.07" width="6.09" height="6.09"/><rect class="cls-2" x="57" y="88.06" width="20" height="2"/><rect class="cls-2" x="57" y="92.06" width="27" height="2"/><rect class="cls-17" x="89.05" y="58.76" width="6.09" height="6.09"/><rect class="cls-2" x="97" y="59.06" width="20" height="2"/><rect class="cls-2" x="97" y="62.06" width="27" height="2"/><rect class="cls-16" x="48.76" y="58.76" width="6.09" height="6.09"/><rect class="cls-2" x="57" y="59.06" width="20" height="2"/><rect class="cls-2" x="57" y="62.06" width="27" height="2"/><rect class="cls-17" x="89.05" y="73.41" width="6.09" height="6.09"/><rect class="cls-2" x="97" y="74.06" width="20" height="2"/><rect class="cls-2" x="97" y="77.06" width="27" height="2"/><rect class="cls-16" x="48.76" y="73.41" width="6.09" height="6.09"/><rect class="cls-2" x="57" y="74.06" width="20" height="2"/><rect class="cls-2" x="57" y="77.06" width="27" height="2"/><polygon class="cls-12" points="318.91 104.64 321.16 106.88 307.71 120.34 301.03 113.67 303.28 111.42 307.71 115.84 318.91 104.64"/><circle class="cls-18" cx="275" cy="29.49" r="18"/><path class="cls-19" d="M282,22.06c0-4-1.58-7-7-7s-7,3-7,7v3h-3v16h20v-16h-3Zm1,5v12H267v-12Zm-13-2v-3c0-3.59,1.75-5,5-5,3.75,0,5,1.41,5,5v3Zm6,6v5h-2v-5Z"/><rect class="cls-20" x="233" y="62.06" width="26" height="31" rx="2.3" ry="2.3"/><path class="cls-10" d="M252.38,60.06H249a3.09,3.09,0,0,0-6.18,0h-3.24A1.62,1.62,0,0,0,238,61.68v3.38h16V61.68A1.62,1.62,0,0,0,252.38,60.06Zm-6.71,1.39a1.21,1.21,0,1,1,1.2-1.21A1.2,1.2,0,0,1,245.67,61.45Z"/><rect class="cls-12" x="240" y="68.06" width="14" height="2"/><rect class="cls-12" x="236" y="68.06" width="3" height="2"/><rect class="cls-12" x="240" y="72.06" width="14" height="2"/><rect class="cls-12" x="236" y="72.06" width="3" height="2"/><rect class="cls-12" x="240" y="76.06" width="14" height="2"/><rect class="cls-12" x="236" y="76.06" width="3" height="2"/></svg>