<svg id="Layer_1" data-name="Layer 1" xmlns="http://www.w3.org/2000/svg" viewBox="0 0 400 140"><defs><style>.cls-1{fill:#c6e1f6;}.cls-2{fill:#333;}.cls-3{fill:#909090;}.cls-4{fill:#aad2f2;}.cls-5{fill:#8090a8;}.cls-6{fill:#556a8a;}.cls-7{fill:#2b456d;}.cls-8{fill:#aab5c5;}</style></defs><title>ems_info-protection-security-3</title><path class="cls-1" d="M284.76,59.08a7.83,7.83,0,0,1,3.75,1A12.32,12.32,0,0,1,308.64,52a18.09,18.09,0,0,1,35.87,2.21,10.48,10.48,0,1,1,2.65,20.62h-62.4a7.87,7.87,0,1,1,0-15.73Z"/><path class="cls-1" d="M127.42,104.49H89.33c-3.65,0-5.95,0-7.65-.18l-.33,0a12.06,12.06,0,0,1-3.87-1.06l-.2-.08a13.1,13.1,0,0,1,2.43-24.59,13.28,13.28,0,0,1,5.83-.08A14.23,14.23,0,0,1,98.8,69,13.84,13.84,0,0,1,105,70.44a13.71,13.71,0,0,1,11.66-6.55,14.07,14.07,0,0,1,13.68,12,14.5,14.5,0,0,1-.12,28.27A11.86,11.86,0,0,1,127.42,104.49Z"/><rect class="cls-2" x="75.1" y="35.71" width="41" height="67"/><rect class="cls-3" x="82.1" y="42.71" width="27" height="6"/><rect class="cls-3" x="82.1" y="55.71" width="27" height="6"/><rect class="cls-2" x="282.98" y="14.06" width="36" height="55.5"/><rect class="cls-3" x="288.98" y="21.06" width="24" height="5.5"/><rect class="cls-3" x="288.98" y="31.56" width="24" height="5.5"/><path class="cls-4" d="M266.68,81.87a14.43,14.43,0,0,1-.12-28.13,14,14,0,0,1,13.61-11.94,13.64,13.64,0,0,1,11.6,6.52,13.77,13.77,0,0,1,6.12-1.43,14.16,14.16,0,0,1,13.2,9.4,13,13,0,0,1,8.22,24.56l-.2.08A12,12,0,0,1,315.25,82l-.33,0c-1.69.15-4,.18-7.61.18h-37.9A11.81,11.81,0,0,1,266.68,81.87Z"/><path class="cls-4" d="M48.44,114.1a17.9,17.9,0,0,1-.15-34.9A17.37,17.37,0,0,1,65.18,64.4a16.92,16.92,0,0,1,14.39,8.08,17.09,17.09,0,0,1,7.59-1.78,17.57,17.57,0,0,1,16.38,11.67,16.39,16.39,0,0,1,7.2.1,16.17,16.17,0,0,1,3,30.36l-.25.1a14.88,14.88,0,0,1-4.78,1.31l-.41,0c-2.1.18-4.94.22-9.44.22h-47A14.64,14.64,0,0,1,48.44,114.1Z"/><path class="cls-5" d="M177.25,43c0-5.74,6.95-20.17,23.35-20.17S222.8,37.14,223,44.08c.12,4.53.13,13.7.11,22.45h9.54c0-8.79,0-18-.11-22.69-.33-12.69-10.44-30.57-31.91-30.57a32.36,32.36,0,0,0-24.76,10.84c-5,5.58-8.13,12.81-8.13,18.87V65.49h9.54Z"/><path class="cls-6" d="M241.94,57.91H158.06A3.83,3.83,0,0,0,154,61.46v61.73a3.83,3.83,0,0,0,4.07,3.55h83.89a3.83,3.83,0,0,0,4.07-3.55V61.46A3.83,3.83,0,0,0,241.94,57.91Z"/><rect class="cls-7" x="153.99" y="68.67" width="92.02" height="46.57"/><path class="cls-8" d="M209.29,81.63a8.8,8.8,0,1,0-14.18,7v9.18a5.14,5.14,0,0,0,10.27,0V88.95A8.79,8.79,0,0,0,209.29,81.63Z"/></svg>