<svg id="Layer_1" data-name="Layer 1" xmlns="http://www.w3.org/2000/svg" viewBox="0 0 400 140"><defs><style>.cls-1{fill:none;stroke:#909090;stroke-miterlimit:10;stroke-dasharray:2 2;}.cls-2{fill:#999;}.cls-3{fill:#60a860;}.cls-4{fill:#88be88;}.cls-5{fill:#231f20;}.cls-6{fill:#fff;}</style></defs><title>ems_identity-access-mgmt-3</title><line class="cls-1" x1="103.46" y1="74.5" x2="301.46" y2="74.5"/><circle class="cls-2" cx="80.67" cy="76.01" r="31.67"/><path class="cls-3" d="M260,121V38.43A5.43,5.43,0,0,0,254.57,33H198a5.43,5.43,0,0,1-4-1.74l-9.76-10.52a5.43,5.43,0,0,0-4-1.74H146.43A5.43,5.43,0,0,0,141,24.43V121Z"/><circle class="cls-4" cx="200.96" cy="76.5" r="33"/><path class="cls-5" d="M90,59.36a10,10,0,0,0-20,0V70H64V96H96V70H90ZM93,73V93H67V73ZM73,70V59.36c0-3.59,3.5-6.74,7.5-6.74A6.45,6.45,0,0,1,87,59.36V70Zm4.5,10.31A3,3,0,0,1,82,77.76a2.53,2.53,0,0,1,1.19,1.18A2.81,2.81,0,0,1,82,82.76V89H79V82.76A2.84,2.84,0,0,1,77.5,80.31Z"/><circle class="cls-2" cx="321.8" cy="75.01" r="31.67"/><path d="M313.72,89.06l-6-6,21.88-21.88,6,6L313.72,89.06Zm-3,3-5.93-6-2,8,7.92-1.95ZM339.58,63.2a4.22,4.22,0,0,0-6-6l-1,1,6,5.93,1-1Z"/><path id="outline" class="cls-6" d="M218.72,70.44a5.56,5.56,0,0,0,1.52-3.81,5.7,5.7,0,0,0-11.39,0,5.57,5.57,0,0,0,1.51,3.79,7.25,7.25,0,0,0-3.1,2.79,8.46,8.46,0,0,0-13.87-.09,7.19,7.19,0,0,0-3-2.69,5.56,5.56,0,0,0,1.52-3.81,5.7,5.7,0,0,0-11.39,0A5.57,5.57,0,0,0,182,70.42c-2.58,1.24-4.34,3.75-4.34,7.58h2.83a5.66,5.66,0,0,1,11.3-.26l0,.31a8.42,8.42,0,0,0,3.53,6.83C191.57,86.74,189,89.33,189,95h2.83c0-5.67,3.81-8.5,8.5-8.5s8.5,2.83,8.5,8.5h2.83c0-5.67-2.61-8.26-6.36-10.11A8.45,8.45,0,0,0,208.79,78v0h.07a5.67,5.67,0,1,1,11.33,0H223C223,74.19,221.28,71.69,218.72,70.44ZM186.25,64a2.8,2.8,0,1,1-2.85,2.8A2.83,2.83,0,0,1,186.25,64Zm19.57,15.3a5.65,5.65,0,0,1-11.18-1.22V78h.05l0-.29a5.64,5.64,0,1,1,11.14,1.57Zm8.7-15.3a2.8,2.8,0,1,1-2.86,2.8A2.83,2.83,0,0,1,214.52,64Z"/></svg>