<svg id="Layer_1" data-name="Layer 1" xmlns="http://www.w3.org/2000/svg" viewBox="0 0 400 140"><defs><style>.cls-1{fill:#aad2f2;}.cls-2{fill:#afd3af;}.cls-3{fill:none;}.cls-4{fill:#316389;}.cls-5{fill:#fff;stroke:#60a860;stroke-miterlimit:10;stroke-width:1.72px;}.cls-6{fill:#60a860;}</style></defs><title>ems_solutions-6</title><path class="cls-1" d="M97.71,10.57h91.4A2.89,2.89,0,0,1,192,13.46V73.62a3,3,0,0,1-2.95,2.95H180v23l-22.78-23H97.94A3,3,0,0,1,95,73.63V13.27A2.71,2.71,0,0,1,97.71,10.57Z"/><path class="cls-2" d="M304.29,39.57h-91.4A2.9,2.9,0,0,0,210,42.46v60.16a3,3,0,0,0,2.95,2.95H222v23l22.78-23h59.28a3,3,0,0,0,2.94-2.94V42.27A2.71,2.71,0,0,0,304.29,39.57Z"/><rect class="cls-3" x="232.67" y="52" width="42" height="42"/><path class="cls-4" d="M138.74,54a11.89,11.89,0,0,1-.48-1.93,13.62,13.62,0,0,1-.21-2.35,7.31,7.31,0,0,1,.73-3.29,13.47,13.47,0,0,1,1.82-2.75A30.48,30.48,0,0,1,143,41.2q1.27-1.19,2.35-2.32a12.65,12.65,0,0,0,1.82-2.38,5.34,5.34,0,0,0,.73-2.74,4.68,4.68,0,0,0-2-4,6.66,6.66,0,0,0-2.14-1,9.79,9.79,0,0,0-2.57-.33q-4.44,0-8.45,4V25.51a19.77,19.77,0,0,1,10.12-2.86,16.19,16.19,0,0,1,4.55.63,11.42,11.42,0,0,1,3.75,1.85,8.73,8.73,0,0,1,2.53,3,9.22,9.22,0,0,1,.92,4.23,10.17,10.17,0,0,1-.77,4.08,15,15,0,0,1-1.95,3.29,18.55,18.55,0,0,1-2.53,2.66q-1.36,1.16-2.53,2.32a13.06,13.06,0,0,0-1.95,2.41,5.15,5.15,0,0,0-.77,2.77,7.71,7.71,0,0,0,.33,2.32A15.14,15.14,0,0,0,145,54Zm3.74,12.85a4.4,4.4,0,0,1-3-1.16,3.62,3.62,0,0,1-1.25-2.8,3.57,3.57,0,0,1,1.25-2.8,4.35,4.35,0,0,1,6,0,3.57,3.57,0,0,1,1.25,2.8,3.62,3.62,0,0,1-1.25,2.8A4.36,4.36,0,0,1,142.48,66.85Z"/><path class="cls-5" d="M275.22,64.44h0v-.31c0-7.87-6.74-14.41-15-14.51-.2-.31-4.9.1-4.9.1h0c-7.46.92-13.28,7.15-13.28,14.41,0,.2-.82,5.93,5,10.73,2.66,2.35,5.42,8.69,5.82,10.52l.31.61H264l.31-.61c.41-1.84,3.27-8.17,5.82-10.42C275.94,70.06,275.22,64.64,275.22,64.44Z"/><rect class="cls-6" x="253" y="89.57" width="12" height="3"/><polygon class="cls-6" points="256.12 99.57 261.22 99.57 264.22 95.57 253.22 95.57 256.12 99.57"/><path class="cls-6" d="M262.22,86h-2V73h-2V86h-2V73h-2s-3.78-2-3.78-4a3.77,3.77,0,0,1,3.78-3.78,4.07,4.07,0,0,1,4,3.78v2h2V69.37a3.93,3.93,0,0,1,2.05-3.55,3.74,3.74,0,0,1,5.13,4.63A4,4,0,0,1,263.63,73h-1.4Zm-7.74-18.47a1.74,1.74,0,1,0,0,3.47h1.7V69.26A1.87,1.87,0,0,0,254.48,67.53Zm7.74,1.82V71h1.7a1.74,1.74,0,1,0-.15-3.46A1.79,1.79,0,0,0,262.22,69.35Z"/></svg>