<svg id="Layer_1" data-name="Layer 1" xmlns="http://www.w3.org/2000/svg" viewBox="0 0 400 140"><defs><style>.cls-1{fill:#aad2f2;}.cls-2{fill:#df5c2b;}.cls-3{fill:#333;}.cls-4{fill:#666;}.cls-5{fill:#316389;}.cls-6{fill:#638aa5;}</style></defs><title>ems_solutions-2</title><path class="cls-1" d="M230.64,64.5A11.2,11.2,0,0,1,236,65.86a17.62,17.62,0,0,1,28.79-11.53A25.87,25.87,0,0,1,316.1,57.5,15,15,0,1,1,319.89,87H230.64a11.25,11.25,0,0,1,0-22.5Z"/><path class="cls-1" d="M38.64,100.5A11.2,11.2,0,0,1,44,101.86,17.62,17.62,0,0,1,72.79,90.33,25.87,25.87,0,0,1,124.1,93.5a15,15,0,1,1,3.79,29.5H38.64a11.25,11.25,0,0,1,0-22.5Z"/><path class="cls-2" d="M174.81,98.9s-14.54-5.2-22,25.66c29.77-8,24.39-23.39,24.39-23.39Z"/><polygon class="cls-3" points="194.68 97.08 179.75 82.01 173.26 88.47 177.94 93.19 167.45 95.12 181.54 109.31 183.53 98.81 188.21 103.53 194.68 97.08"/><path class="cls-4" d="M187.65,60.4s-16.12-9.63-23.72-1.1a145.9,145.9,0,0,0-12.56,16.26l2.82,2.4s9-9.84,16.35-10c4.41-.09,12.17,4.28,12.17,4.28Z"/><path class="cls-4" d="M218.17,89.17s9.59,16.31,1,23.88a145.71,145.71,0,0,1-16.31,12.5l-2.38-2.84s9.88-9,10.07-16.33c.12-4.42-4.21-12.21-4.21-12.21Z"/><path class="cls-5" d="M254.88,22.36l.12-.12h-.11v-.11l-.12.12c-3,.4-39.68,5.63-56.17,22.05-17.19,17.12-20.14,36.36-20.14,36.36l17.66,17.79s19.23-2.85,36.42-20C249,62.07,254.46,25.33,254.88,22.36Z"/><path class="cls-6" d="M254.88,22.36l.12-.12h-.11v-.11l-.12.12c-2.07.28-20.52,2.9-37.09,10-7.22,3.1,24.24,33.69,27.44,26.08C252,42.1,254.59,24.39,254.88,22.36Z"/></svg>