<svg id="Layer_1" data-name="Layer 1" xmlns="http://www.w3.org/2000/svg" viewBox="0 0 400 140"><defs><style>.cls-1{fill:#aad2f2;}.cls-2{fill:#666;}.cls-3{fill:#fff;}.cls-4{fill:#1a1a1a;}.cls-5{fill:#60a860;}</style></defs><title>i_solutions-5</title><path class="cls-1" d="M109.63,47.66c1.68-20.22,18-36.09,37.93-36.09A37.94,37.94,0,0,1,181.43,33a37.81,37.81,0,0,1,20.22-5.85c18,0,33.08,12.59,37.64,29.74a36,36,0,0,1,26.07,66.89A33.74,33.74,0,0,1,254.23,127l-.9.09c-5.15.46-12.23.53-22.89.53H114.72a31.79,31.79,0,0,1-7.49-.9C89.44,123.1,76,106.86,76,87.36,76,67,90.66,50.18,109.63,47.66Z"/><path class="cls-2" d="M301,65.84V54a2.42,2.42,0,0,0-2.42-2.42H218.42A2.42,2.42,0,0,0,216,54v54.16a2.42,2.42,0,0,0,2.42,2.42h80.16a2.42,2.42,0,0,0,2.42-2.42V95.33l35,12.85V53Z"/><circle class="cls-3" cx="259.06" cy="83.07" r="19.39"/><path class="cls-4" d="M270.59,84.88l-16.4,9.8A2.11,2.11,0,0,1,251,92.87V73.27a2.11,2.11,0,0,1,3.19-1.81l16.4,9.8A2.11,2.11,0,0,1,270.59,84.88Z"/><circle class="cls-3" cx="155.86" cy="82.89" r="35"/><rect class="cls-5" x="137" y="65.57" width="6" height="35"/><rect class="cls-5" x="146" y="65.57" width="6" height="35"/><rect class="cls-5" x="155" y="65.57" width="6" height="35"/><rect class="cls-5" x="166.3" y="65.39" width="6" height="35" transform="translate(-12.21 32.02) rotate(-10.43)"/></svg>