<svg id="Layer_1" data-name="Layer 1" xmlns="http://www.w3.org/2000/svg" viewBox="0 0 400 140"><defs><style>.cls-1{fill:#d4dae2;}.cls-2,.cls-5{fill:#fff;}.cls-3{fill:#5e5e5e;}.cls-4{fill:#2e2e2e;}.cls-5{opacity:0.15;}.cls-17,.cls-6{fill:none;stroke-miterlimit:10;}.cls-6{stroke:#b3b3b3;stroke-width:2px;stroke-dasharray:2 3;}.cls-7{fill:#b3b3b3;}.cls-8{fill:#8090a8;}.cls-9{fill:#556a8a;}.cls-10{fill:#2b456d;}.cls-11{fill:#60a860;}.cls-12{fill:#acacac;}.cls-13{fill:#925592;}.cls-14{fill:#bbb1c8;}.cls-15{fill:#757575;}.cls-16{fill:#ae80ae;}.cls-17{stroke:#909090;stroke-width:1.48px;}.cls-18{fill:#f0606c;}</style></defs><title>ems_info-protection-security-1</title><rect class="cls-1" x="125.05" y="26.54" width="139.24" height="73.92"/><path class="cls-2" d="M223.92,58h-1.63a19.17,19.17,0,0,0,1.63-6.52A15.06,15.06,0,0,0,208.81,36.4a14.65,14.65,0,0,0-14.7,13,16.39,16.39,0,0,0-11.43-4.89,15.49,15.49,0,0,0-15.11,14.27,20.42,20.42,0,0,0-4.9-.82,14.89,14.89,0,1,0,0,29.77h61.24c8.17,0,15.11-6.53,15.11-14.68A15.06,15.06,0,0,0,223.92,58"/><polygon class="cls-3" points="223.98 117.2 165.13 117.2 168.58 113.3 220.53 113.3 223.98 117.2"/><path class="cls-4" d="M221.65,119.39H167.56a2.31,2.31,0,0,1-2.54-2.2h59S224.28,119.39,221.65,119.39Z"/><polygon class="cls-4" points="207.31 114.67 181.79 114.67 183.86 102.95 205.24 102.95 207.31 114.67"/><polygon class="cls-5" points="261.59 62.62 261.59 28.22 227.19 28.22 261.59 62.62"/><path class="cls-4" d="M263,24.33H125.6a3.18,3.18,0,0,0-3.18,3.18v73.41a3.18,3.18,0,0,0,3.18,3.18H263a3.18,3.18,0,0,0,3.18-3.18V27.51A3.18,3.18,0,0,0,263,24.33Zm-1.64,74.22H127.12V28.47H261.41Z"/><path class="cls-6" d="M62,63.48H191.59c6,.47,8-3.27,8-14.84a9.1,9.1,0,0,1,9.28-9.28c6.55,0,9.28,4.81,9.17,9.28V74.22a9.23,9.23,0,0,0,9.51,9.28c4.49,0,9.6-4,9.6-10.66,0-5.68-1.52-8.91,9.26-8.13h52"/><polygon class="cls-7" points="291.7 72.89 290.34 71.43 297.56 64.72 290.34 58 291.7 56.54 300.5 64.72 291.7 72.89"/><path class="cls-8" d="M320.71,39.74c0-3.24,3.91-11.37,13.16-11.37s12.51,8.08,12.61,12c.07,2.55.07,7.72.06,12.65h5.38c0-5,0-10.16-.06-12.79C351.67,33.07,346,23,333.87,23a18.24,18.24,0,0,0-14,6.11c-2.83,3.14-4.58,7.22-4.58,10.63V52.42h5.37Z"/><path class="cls-9" d="M357.17,48.15H309.89a2.16,2.16,0,0,0-2.29,2V84.94a2.16,2.16,0,0,0,2.29,2h47.28a2.16,2.16,0,0,0,2.29-2V50.15A2.16,2.16,0,0,0,357.17,48.15Z"/><rect class="cls-10" x="307.6" y="54.22" width="51.86" height="26.24"/><path class="cls-1" d="M338.77,61.52a5,5,0,1,0-8,3.92v5.17a2.89,2.89,0,1,0,5.79,0v-5A5,5,0,0,0,338.77,61.52Z"/><circle class="cls-11" cx="356.13" cy="49.91" r="11.3"/><polygon class="cls-2" points="354.7 56.81 352.5 56.77 348.63 50.95 350.86 49.47 353.67 53.68 361.48 43.01 363.64 44.59 354.7 56.81"/><path class="cls-12" d="M93.32,84.24c0,2.59-.31,3.62-2.26,3.62-2.77,0-6.06-4.79-6.06-10.15V45.9h7.06a1.26,1.26,0,0,1,1.26,1.26"/><path class="cls-2" d="M87.64,36H34.23A1.23,1.23,0,0,0,33,37.23V83.17C33,86.51,34,88,37.72,88h54s-2.79.25-2.79-3.65c0-3.54-.15-40.47-.18-47.27A1.08,1.08,0,0,0,87.64,36Z"/><rect class="cls-13" x="36" y="39" width="49" height="6"/><rect class="cls-14" x="36" y="48" width="22" height="15"/><rect class="cls-15" x="62" y="48" width="23" height="2"/><rect class="cls-15" x="62" y="52" width="23" height="2"/><rect class="cls-15" x="62" y="57" width="23" height="2"/><rect class="cls-15" x="62" y="61" width="23" height="2"/><rect class="cls-14" x="73" y="66" width="11" height="18"/><rect class="cls-16" x="36" y="66" width="33" height="5"/><line class="cls-17" x1="36" y1="73.5" x2="69" y2="73.5"/><line class="cls-17" x1="36" y1="76.5" x2="69" y2="76.5"/><line class="cls-17" x1="36" y1="79.5" x2="69" y2="79.5"/><line class="cls-17" x1="36" y1="82.5" x2="69" y2="82.5"/><path class="cls-18" d="M208.43,55.84a.47.47,0,0,0,.44.32l1,0a.5.5,0,0,0,.4-.51l.06-1.2a.7.7,0,0,1,.49-.73c.16-.14.39-.21.54-.35a.84.84,0,0,1,.82.11l1.09.73a.57.57,0,0,0,.53-.05l.71-.79a.52.52,0,0,0-.12-.61l-.86-.94a.61.61,0,0,1-.12-.76l-.07-.08a.81.81,0,0,0,.25-.52c0-.3.18-.59.71-.64l1.14-.18a.59.59,0,0,0,.4-.51l-.1-1.06a.37.37,0,0,0-.44-.32l-1.2-.06a.72.72,0,0,1-.73-.48c-.14-.16-.21-.39-.35-.54a1.2,1.2,0,0,1,0-.9l.72-.95a.54.54,0,0,0,0-.68l-.8-.56a.46.46,0,0,0-.6,0l-.87.94a.77.77,0,0,1-.84.19,2.33,2.33,0,0,0-.59-.18l-.07-.08a.79.79,0,0,1-.57-.63l-.17-1.29a.47.47,0,0,0-.44-.32l-1.06.1a.37.37,0,0,0-.32.44L207.25,44c0,.45-.18.59-.41.66s-.39.21-.54.35a.79.79,0,0,1-.9,0l-1-.8a.58.58,0,0,0-.61.12l-.71.8a.66.66,0,0,0,.12.61l.86.94c.29.31.35.54.12.76,0,.15-.09.37-.11.67s-.17.44-.7.49l-1.22.25a.47.47,0,0,0-.32.44l.1,1.06a.48.48,0,0,0,.36.39l1.28,0c.45,0,.59.18.66.41a6.72,6.72,0,0,1,.34.69.67.67,0,0,1,0,.83l-.8,1a.58.58,0,0,0,.12.61l.72.63a.46.46,0,0,0,.6,0l.87-.94a.77.77,0,0,1,.84-.19l.67.26c.3,0,.44.17.57.63l.24,1.21M211.38,49A2.64,2.64,0,0,1,209,51.72a2.45,2.45,0,0,1-2.75-2.38,2.52,2.52,0,0,1,2.31-2.68A2.56,2.56,0,0,1,211.38,49"/><path class="cls-18" d="M226.72,80.06a.47.47,0,0,0,.44.32l1,0a.5.5,0,0,0,.4-.51l.06-1.2a.7.7,0,0,1,.49-.73c.16-.14.39-.21.54-.35a.84.84,0,0,1,.82.11l1.09.73a.57.57,0,0,0,.53-.05l.71-.79a.52.52,0,0,0-.12-.61l-.86-.94a.61.61,0,0,1-.12-.76l-.07-.08a.81.81,0,0,0,.25-.52c0-.3.18-.59.71-.64l1.14-.18a.59.59,0,0,0,.4-.51l-.1-1.06a.37.37,0,0,0-.44-.32l-1.2-.06a.72.72,0,0,1-.73-.48c-.14-.16-.21-.39-.35-.54a1.2,1.2,0,0,1,0-.9L232,69a.54.54,0,0,0,0-.68l-.8-.56a.46.46,0,0,0-.6,0l-.87.94a.77.77,0,0,1-.84.19,2.33,2.33,0,0,0-.59-.18l-.07-.08a.79.79,0,0,1-.57-.63l-.17-1.29a.47.47,0,0,0-.44-.32l-1.06.1a.37.37,0,0,0-.32.44l-.13,1.27c0,.45-.18.59-.41.66s-.39.21-.54.35a.79.79,0,0,1-.9,0l-1-.8a.58.58,0,0,0-.61.12l-.71.8a.66.66,0,0,0,.12.61l.86.94c.29.31.35.54.12.76,0,.15-.09.37-.11.67s-.17.44-.7.49l-1.22.25a.47.47,0,0,0-.32.44l.1,1.06a.48.48,0,0,0,.36.39l1.28,0c.45,0,.59.18.66.41a6.72,6.72,0,0,1,.34.69.67.67,0,0,1,0,.83l-.8,1a.58.58,0,0,0,.12.61l.72.63a.46.46,0,0,0,.6,0l.87-.94a.77.77,0,0,1,.84-.19l.67.26c.3,0,.44.17.57.63l.24,1.21m2.95-6.86A2.64,2.64,0,0,1,227.28,76a2.45,2.45,0,0,1-2.75-2.38,2.52,2.52,0,0,1,2.31-2.68,2.56,2.56,0,0,1,2.83,2.31"/></svg>