<svg id="Layer_1" data-name="Layer 1" xmlns="http://www.w3.org/2000/svg" viewBox="0 0 400 140"><defs><style>.cls-1{fill:#60a860;}.cls-2{fill:#aad2f2;stroke:#a5d6ea;}.cls-2,.cls-4{stroke-miterlimit:10;}.cls-12,.cls-3{fill:#fff;}.cls-4{fill:none;stroke:#4d4d4d;stroke-width:2.68px;stroke-dasharray:4.02 4.02;}.cls-5{fill:#4d4d4d;}.cls-6{fill:#ffb900;}.cls-7{fill:#8090a8;}.cls-8{fill:#556a8a;}.cls-9{fill:#2b456d;}.cls-10{fill:#aab5c5;}.cls-11{fill:#316389;}.cls-12{opacity:0.1;isolation:isolate;}.cls-13{fill:#638aa5;}.cls-14{fill:#175d87;}.cls-15{fill:#377093;}</style></defs><title>ems_solutions-4</title><path class="cls-1" d="M346.65,72.56a24,24,0,1,0-24-24A24,24,0,0,0,346.65,72.56Zm-4.13-45.22c.39-.08.78-.13,1.18-.18a24.9,24.9,0,0,0-3.43,7.39h-5.17A19.92,19.92,0,0,1,342.52,27.34Zm15.64,7.21h-4.35a25.29,25.29,0,0,0-3.31-7.26l.19,0A19.87,19.87,0,0,1,358.16,34.55Zm5.52,12.36a28.76,28.76,0,0,0-2.6-10.6h3.37a21.48,21.48,0,0,1,3.74,10.6Zm4.59,1.76a21.47,21.47,0,0,1-1.89,8.69h-4a29.54,29.54,0,0,0,1.33-8.69ZM350.56,69.81l-.85.13c2.18-2.37,3.91-6.12,4.94-10.82h5.25A21,21,0,0,1,350.56,69.81Zm-17.2-10.69h6c1,4.71,2.74,8.51,4.9,10.93-.53-.06-1.06-.15-1.58-.24A20.94,20.94,0,0,1,333.37,59.12Zm-.66-1.76a27.79,27.79,0,0,1-1.42-8.69h7.06a51.29,51.29,0,0,0,.71,8.69ZM354,48.67a49.16,49.16,0,0,1-.75,8.69H340.87a48.42,48.42,0,0,1-.76-8.69Zm-13.83-1.76a49,49,0,0,1,1.46-10.6h10.88a49,49,0,0,1,1.46,10.6Zm12.72,12.21c-1.21,5.34-3.34,9.34-5.94,11-2.46-1.83-4.5-5.82-5.68-11ZM355,57.36a50.68,50.68,0,0,0,.72-8.69H362a27.84,27.84,0,0,1-1.41,8.69Zm6.92-10.45h-6.25a50.78,50.78,0,0,0-1.37-10.6h4.83A26.9,26.9,0,0,1,361.92,46.91Zm-15.27-20c.47,0,.92,0,1.38.07A19.82,19.82,0,0,1,352,34.55h-9.88a19.71,19.71,0,0,1,4-7.59Zm-6.88,9.38a50.67,50.67,0,0,0-1.38,10.6h-7.07a26.94,26.94,0,0,1,2.77-10.6Zm-10.2,10.6h-4.47a21.48,21.48,0,0,1,3.74-10.6h3.33A28.76,28.76,0,0,0,329.57,46.91Zm0,1.76a29.58,29.58,0,0,0,1.33,8.69h-3.94A21.47,21.47,0,0,1,325,48.67ZM327.8,59.12h3.67a24.81,24.81,0,0,0,5.81,8.9A21.75,21.75,0,0,1,327.8,59.12Zm28.08,9a24.74,24.74,0,0,0,5.9-9h3.72A21.74,21.74,0,0,1,355.88,68.08Zm7.22-33.53h-2.91A23.66,23.66,0,0,0,355.91,29,21.73,21.73,0,0,1,363.1,34.55ZM337.28,29.1a23.8,23.8,0,0,0-4.21,5.45H330.2A21.73,21.73,0,0,1,337.28,29.1Z"/><circle class="cls-2" cx="197.67" cy="51.88" r="24"/><circle class="cls-2" cx="50.01" cy="51.88" r="24"/><path class="cls-3" d="M46.74,36.73v5.7l-2.44,1.22-2.44-1.22.21-5.49A5.35,5.35,0,0,0,38.6,42a5.87,5.87,0,0,0,3.45,5.08l0,18.3a1.92,1.92,0,0,0,2,2h.41a2.26,2.26,0,0,0,2.24-2.24l-.18-18.1A5.35,5.35,0,0,0,50,42a6,6,0,0,0-3.25-5.29M44.27,66.42a1.08,1.08,0,0,1-1.22-1.22c0-.81.61-1.42,1.22-1.22a1.08,1.08,0,0,1,1.22,1.22c.2.61-.41,1.22-1.22,1.22"/><path d="M55.77,67.55h1.7a2,2,0,0,0,2.12-2.12L59.37,52.9A1.59,1.59,0,0,0,57.88,51V42.92l1.27-2.12-1.49-5.31H56l-1.48,5.31,1.28,2.13V51a2.23,2.23,0,0,0-1.91,1.91V65.64a2.25,2.25,0,0,0,1.91,1.91"/><path class="cls-4" d="M382.82,86.13,382.54,51a36.85,36.85,0,1,0-73.69,0l-.31,38a36.85,36.85,0,0,1-73.69,0l-.31-38a36.85,36.85,0,1,0-73.69,0l-.31,38a36.85,36.85,0,0,1-73.69,0l-.31-38a37,37,0,0,0-73.73-4.78"/><polygon class="cls-5" points="393.72 77.15 391.74 75.34 382.82 85.1 373.74 75.49 371.79 77.33 382.85 89.03 393.72 77.15"/><circle class="cls-5" cx="12.89" cy="46.01" r="5.04" transform="translate(-33.97 55.32) rotate(-85.59)"/><path class="cls-6" d="M209.83,59.09c-1.17-2-8.26-12.46-8.26-12.46V37.86l1.29-1.68a.3.3,0,0,0-.24-.48h-9.29a.3.3,0,0,0-.24.48l1.28,1.68v8.77s-7.09,10.44-8.26,12.46c-1.65,2.84.65,5.21,3.07,5.21h17.59C209.18,64.3,211.48,61.94,209.83,59.09Z"/><path d="M205.39,52.31H190.54c-1.88,2.81-3.86,5.8-4.44,6.78-1.65,2.84.65,5.21,3.07,5.21h17.59c2.42,0,4.72-2.37,3.07-5.21C209.26,58.1,207.27,55.11,205.39,52.31Z"/><circle class="cls-3" cx="193.72" cy="55.49" r="1.86"/><circle cx="196.2" cy="50" r="1.08"/><path class="cls-7" d="M113,73.61a9.46,9.46,0,0,1,9.5-8.18,9,9,0,0,1,9.07,8.62c0,1.84.05,5.56,0,8.51h3.87c0-3,0-6.71,0-8.61A12.8,12.8,0,0,0,122.5,61.57a13.12,13.12,0,0,0-10,4.4A13.47,13.47,0,0,0,109,73.61v9h4Z"/><path class="cls-8" d="M139.36,79.57H105.64A1.55,1.55,0,0,0,104,81v25.11a1.55,1.55,0,0,0,1.64,1.44h33.73a1.55,1.55,0,0,0,1.64-1.44V81A1.55,1.55,0,0,0,139.36,79.57Z"/><rect class="cls-9" x="104" y="83.57" width="37" height="19"/><path class="cls-10" d="M125.52,90.38A3.43,3.43,0,1,0,120,93.09v3.42a2.11,2.11,0,0,0,1.71,2.13,2,2,0,0,0,2.29-2V93.23A3.42,3.42,0,0,0,125.52,90.38Z"/><circle class="cls-1" cx="138.52" cy="80.93" r="8.13"/><polygon class="cls-3" points="137.48 85.89 135.9 85.86 133.12 81.68 134.72 80.61 136.74 83.64 142.36 75.96 143.92 77.1 137.48 85.89"/><path class="cls-11" d="M271,62.57H251V101.5c0,4,8.93,7.26,20,7.32v-.25h0c11.6,0,21-3.26,21-7.28V62.57Z"/><path class="cls-12" d="M271,108.57h.28c11.44,0,20.72-3.26,20.72-7.28V62.57H271Z"/><path class="cls-13" d="M292.19,62.28c0,4-9.22,7.28-20.59,7.28S251,66.31,251,62.28,260.22,55,271.59,55s20.59,3.26,20.59,7.28"/><path class="cls-14" d="M288.65,62.53c0,2.66-7.66,4.81-17.11,4.81s-17.11-2.15-17.11-4.81,7.66-4.81,17.11-4.81,17.11,2.15,17.11,4.81"/><path class="cls-15" d="M285.06,65.49c2.24-.81,3.59-1.83,3.59-2.93,0-2.66-7.66-4.81-17.11-4.81s-17.11,2.15-17.11,4.81c0,1.11,1.35,2.12,3.59,2.93a49.91,49.91,0,0,1,27.05,0"/></svg>