<svg id="Layer_1" data-name="Layer 1" xmlns="http://www.w3.org/2000/svg" viewBox="0 0 400 140"><defs><style>.cls-1{fill:#aad2f2;}.cls-2{fill:#333;}.cls-3{fill:#909090;}.cls-4{fill:#88be88;}.cls-5,.cls-6{fill:none;stroke:#fff;stroke-miterlimit:10;}.cls-5{stroke-width:4px;}.cls-6{stroke-width:3px;}.cls-7{fill:#8090a8;}.cls-8{fill:#556a8a;}.cls-9{fill:#2b456d;}.cls-10{fill:#aab5c5;}.cls-11{fill:#2e2e2e;}.cls-12{fill:#afd3af;}.cls-13{fill:#5d5f5e;}.cls-14,.cls-16{fill:#fff;}.cls-14{opacity:0.15;}.cls-15{fill:#757575;}.cls-16{opacity:0.25;}</style></defs><title>ems_solutions-1</title><path class="cls-1" d="M187.35,74.67a17.13,17.13,0,0,1,8.51,2.08,26.93,26.93,0,0,1,44-17.62A39.55,39.55,0,0,1,318.28,64a21.63,21.63,0,0,1,13.37.63,23.31,23.31,0,0,1,15.34,21,22.93,22.93,0,0,1-22.92,23.5H187.66a17.2,17.2,0,0,1-.31-34.39Z"/><rect class="cls-2" x="257" y="26.06" width="35" height="65"/><rect class="cls-3" x="264" y="33.06" width="21" height="5"/><rect class="cls-3" x="264" y="43.06" width="21" height="5"/><rect class="cls-3" x="279" y="80.06" width="6" height="5"/><circle class="cls-4" cx="95.5" cy="70.84" r="42"/><circle class="cls-5" cx="79.5" cy="63.5" r="6.5"/><path class="cls-5" d="M71.5,78.39a7.63,7.63,0,1,1,15.26,0"/><circle class="cls-6" cx="79.5" cy="89.5" r="5"/><circle class="cls-6" cx="90.5" cy="89.5" r="5"/><circle class="cls-6" cx="101.5" cy="89.5" r="5"/><circle class="cls-6" cx="112.5" cy="89.5" r="5"/><line class="cls-5" x1="85" y1="69" x2="119" y2="69"/><polyline class="cls-5" points="114 69 114 47 80 47 80 58"/><path class="cls-7" d="M209,77.69A12.26,12.26,0,0,1,221.05,67.5c8.33,0,11.21,7.24,11.3,10.75.06,2.29.06,6.92.05,11.81h4.82c0-4.91,0-9.57-.06-11.93-.16-6.41-5.27-15.44-16.12-15.44a16.35,16.35,0,0,0-12.51,5.48A19,19,0,0,0,204,77.69V89.06h5Z"/><path class="cls-8" d="M242,85.06H199a1.93,1.93,0,0,0-2,1.8v31.39a1.93,1.93,0,0,0,2,1.8H242a1.93,1.93,0,0,0,2-1.8V86.86A1.93,1.93,0,0,0,242,85.06Z"/><rect class="cls-9" x="197" y="90.06" width="47" height="24"/><path class="cls-10" d="M224.9,98.33a4.29,4.29,0,1,0-6.9,3.39V106a2.62,2.62,0,0,0,2.28,2.67,2.5,2.5,0,0,0,2.72-2.49v-4.29A4.28,4.28,0,0,0,224.9,98.33Z"/><rect class="cls-11" x="283" y="62.06" width="41" height="28" rx="2.16" ry="2.16"/><rect class="cls-12" x="285" y="64.06" width="37" height="24"/><polygon class="cls-13" points="322 76.8 323 76.93 323 75.91 322 76.03 322 76.8"/><polygon class="cls-14" points="322 79.01 322 64.06 305.67 64.06 322 79.01"/><path class="cls-11" d="M327.74,94a24,24,0,0,1-5.07.39,27.65,27.65,0,0,1-5.41-.39c-.75-.19-1.26-.65-1.26-1.36V70c0-.73.48-1.16,1.29-1.29a43.14,43.14,0,0,1,5.35-.33,31.5,31.5,0,0,1,5.07.33c.87.14,1.29.59,1.29,1.32V92.6C329,93.31,328.62,93.76,327.74,94Z"/><rect class="cls-12" x="317" y="71.06" width="11" height="20"/><circle class="cls-15" cx="322.84" cy="69.66" r="0.25"/><circle class="cls-15" cx="318.82" cy="69.87" r="0.2"/><polygon class="cls-14" points="328 78.38 328 71.06 320 71.06 328 78.38"/><path class="cls-11" d="M308,102.06V73.26a1.2,1.2,0,0,0-1.2-1.2H263.2a1.2,1.2,0,0,0-1.2,1.2v28.8Z"/><rect class="cls-12" x="264" y="74.06" width="42" height="26"/><path class="cls-11" d="M311,104.06H259c-1.73-.23-2-2.62-2-2h56C313,101.43,312.33,103.82,311,104.06Z"/><rect class="cls-13" x="285" y="73.06" width="1" height="1"/><polygon class="cls-16" points="306 74.06 287.29 74.06 306 91.56 306 74.06"/></svg>